# xmcd CD database file
#
# Track frame offsets:
#	150
#	13212
#	24905
#	38872
#	52694
#	66526
#	80202
#	92957
#	105063
#	118546
#	131919
#	144269
#	157149
#	170720
#	184546
#	194533
#	204355
#	216924
#	226207
#	237296
#
# Disc length: 3337 seconds
#
# Revision: 0
# Processed by: cddbd v1.5PL3 Copyright (c) Steve Scherf et al.
# Submitted via: CDex 1.51
#
DISCID=180d0714
DTITLE=Sarah Vaughan - The Platinum Collection - 1
DYEAR=1997
DGENRE=Jazz
TTITLE0=All Too Soon
TTITLE1=I'm Scared
TTITLE2=September Song
TTITLE3=You Go To My Head
TTITLE4=Time After Time
TTITLE5=It Might As Well Be Spring
TTITLE6=Don't Worry 'Bout Me
TTITLE7=We're Through
TTITLE8=Body and Soul
TTITLE9=A Hundred Years From Today
TTITLE10=I'm Through With Love
TTITLE11=If You Could See Me Now
TTITLE12=You're Blase'
TTITLE13=I Can Make You Love Me
TTITLE14=Careless
TTITLE15=Sweet Affection
TTITLE16=Mary Contrary
TTITLE17=What So Bad About It?
TTITLE18=Broken Hearted Melody
TTITLE19=That Old Black Magic
EXTD=YEAR: 1997
EXTT0=
EXTT1=
EXTT2=
EXTT3=
EXTT4=
EXTT5=
EXTT6=
EXTT7=
EXTT8=
EXTT9=
EXTT10=
EXTT11=
EXTT12=
EXTT13=
EXTT14=
EXTT15=
EXTT16=
EXTT17=
EXTT18=
EXTT19=
PLAYORDER=
